# xmcd
#
# Track frame offsets:
#	150
#	17603
#	31579
#	43857
#
# Disc length: 935 seconds
#
# Revision: 1
# Processed by: cddbd v1.5.2PL0 Copyright (c) Steve Scherf et al.
# Submitted via: audiograbber 1.83.01
#
DISCID=2303a504
DTITLE=Portion Control - Crop (N)
DYEAR=2009
DGENRE=Industrial
TTITLE0=Brain Scaper Death Dive Rebuild
TTITLE1=Defend NTRSN Version
TTITLE2=Witness/Transmission Intro_01
TTITLE3=Amnesia09_Beta.01
EXTD=
EXTT0=
EXTT1=
EXTT2=
EXTT3=
PLAYORDER=
